# AST/ASF file generated using VICON BodyLanguage
# -----------------------------------------------
:version 1.10
:name VICON
:units
  mass 1.0
  length 0.45
  angle deg
:documentation
   .ast/.asf automatically generated from VICON data using
   VICON BodyBuilder and BodyLanguage model FoxedUp or BRILLIANT.MOD
:root
   order TX TY TZ RX RY RZ
   axis XYZ
   position 0 0 0  
   orientation 0 0 0 
:bonedata
  begin
     id 1 
     name lhipjoint
     direction 0.440178 -0.822639 0.359871 
     length 2.53113 
     axis 0 0 0  XYZ
  end
  begin
     id 2 
     name lfemur
     direction 0.34202 -0.939693 0  
     length 7.88132  
     axis 0 0 20  XYZ
    dof rx ry rz
    limits (-160.0 20.0)
           (-70.0 70.0)
           (-60.0 70.0)
  end
  begin
     id 3 
     name ltibia
     direction 0.34202 -0.939693 0   
     length 8.43783   
     axis 0 0 20   XYZ
    dof rx
    limits (-10.0 170.0)
  end
  begin
     id 4 
     name lfoot
     direction 0.0886351 -0.243523 0.965837   
     length 2.63414   
     axis -90 7.62852e-016 20   XYZ
    dof rx rz
    limits (-45.0 90.0)
           (-70.0 20.0)
  end
  begin
     id 5 
     name ltoes
     direction 1.53703e-011 -4.21717e-011 1   
     length 1.31427   
     axis -90 7.62852e-016 20   XYZ
    dof rx
    limits (-90.0 20.0)
  end
  begin
     id 6 
     name rhipjoint
     direction -0.399779 -0.839773 0.367367   
     length 2.47948  
     axis 0 0 0  XYZ 
  end
  begin
     id 7 
     name rfemur
     direction -0.34202 -0.939693 0   
     length 7.74806   
     axis 0 0 -20   XYZ
    dof rx ry rz
    limits (-160.0 20.0)
           (-70.0 70.0)
           (-70.0 60.0)
  end
  begin
     id 8 
     name rtibia
     direction -0.34202 -0.939693 0   
     length 8.74432   
     axis 0 0 -20   XYZ
    dof rx
    limits (-10.0 170.0)
 end
 begin
     id 9 
     name rfoot
     direction -0.108514 -0.298139 0.948334   
     length 2.66102  
     axis -90 -7.62852e-016 -20   XYZ
    dof rx rz
    limits (-45.0 90.0)
           (-20.0 70.0)
  end
  begin
     id 10 
     name rtoes
     direction -1.53392e-011 -4.22077e-011 1   
     length 1.31983   
     axis -90 -7.62852e-016 -20   XYZ
    dof rx
    limits (-90.0 20.0)
  end
  begin
     id 11 
     name lowerback
     direction 0.0113257 0.999866 0.0118602   
     length 2.58694   
     axis 0 0 0   XYZ
    dof rx ry rz
    limits (-20.0 45.0)
           (-30.0 30.0)
           (-30.0 30.0)
  end
  begin
     id 12 
     name upperback
     direction -0.0164747 0.995193 -0.0965375   
     length 2.52368   
     axis 0 0 0   XYZ
    dof rx ry rz
    limits (-20.0 45.0)
           (-30.0 30.0)
           (-30.0 30.0)
  end
  begin
     id 13 
     name thorax
     direction -0.0194301 0.99433 -0.104552   
     length 2.56099   
     axis 0 0 0   XYZ
    dof rx ry rz
    limits (-20.0 45.0)
           (-30.0 30.0)
           (-30.0 30.0)
  end
  begin
     id 14 
     name lowerneck
     direction 0.0148543 0.995587 -0.092657   
     length 1.71582   
     axis 0 0 0   XYZ
    dof rx ry rz
    limits (-20.0 45.0)
           (-30.0 30.0)
           (-30.0 30.0)
  end
  begin
     id 15 
     name upperneck
     direction -0.0135467 0.993656 -0.111639   
     length 1.68937   
     axis 0 0 0   XYZ
    dof rx ry rz
    limits (-20.0 45.0)
           (-30.0 30.0)
           (-30.0 30.0)
  end
  begin
     id 16
     name head
     direction -0.00615349 0.999547 -0.029448  
     length 1.7462  
     axis 0 0 0   XYZ
    dof rx ry rz
    limits (-20.0 45.0)
           (-30.0 30.0)
           (-30.0 30.0)
  end
  begin
     id 17 
     name lclavicle
     direction 0.988267 0.149885 0.0293713  
     length 4.47222  
     axis 0 0 0   XYZ
    dof ry rz
    limits (-20.0 10.0)
           (0.0 20.0)
  end
  begin
     id 18 
     name lhumerus
     direction 1 -4.48986e-011 -1.14833e-027   
     length 5.37148   
     axis 180 -30 -90   XYZ
    dof rx ry rz
    limits (-60.0 90.0)
           (-90.0 90.0)
           (-90.0 90.0)
  end
  begin
     id 19
     name lradius
     direction 0.999998 0.00170963 -0.000987055   
     length 3.94212   
     axis 180 -30 -90   XYZ
    dof rx
    limits (-10.0 170.0)
  end
  begin
     id 20
     name lwrist
     direction 0.999998 7.53149e-005 -0.00194706   
     length 1.97106   
     axis 4.65056e-015 90 90   XYZ
    dof ry
    limits (-180.0 0.0)
 end
  begin
     id 21 
     name lhand
     direction 1 -4.48973e-011 -1.31746e-026   
     length 1.17917   
     axis 8.4065e-015 90 90   XYZ
    dof rx rz
    limits (-90.0 90.0)
           (-45.0 45.0)
  end
  begin
     id 22 
     name lfingers
     direction 1 -4.49107e-011 -2.63492e-026   
     length 0.950679   
     axis 1.6813e-014 90 90   XYZ
    dof rx
    limits (0.0 90.0)
  end
  begin
     id 23
     name lthumb
     direction 0.707107 -6.35048e-011 0.707107   
     length 1.36499   
     axis -90 45 2.85299e-015   XYZ
    dof rx rz
    limits (-45.0 45.0)
           (-45.0 45.0)
  end
  begin
     id 24 
     name rclavicle
     direction -0.996699 0.0642895 -0.0495725   
     length 4.62611  
     axis 0 0 0   XYZ 
    dof ry rz
    limits (-10.0 20.0)
           (-20.0 0.0)
  end
  begin
     id 25 
     name rhumerus
     direction -1 -4.48919e-011 -2.41059e-027  
     length 5.4981   
     axis 180 30 90   XYZ
    dof rx ry rz
    limits (-90.0 60.0)
           (-90.0 90.0)
           (-90.0 90.0)
  end
  begin
     id 26 
     name rradius
     direction -0.999999 0.00118101 -0.000681858   
     length 3.48381   
     axis 180 30 90   XYZ
    dof rx
    limits (-10.0 170.0)
  end
  begin
     id 27 
     name rwrist
     direction -0.999999 0.000321823 -0.00132288   
     length 1.7419   
     axis 4.65056e-015 -90 -90   XYZ
    dof ry
    limits (-180.0 0.0)
  end
  begin
     id 28
     name rhand
     direction -1 -4.49022e-011 -1.31746e-026   
     length 1.34932   
     axis 8.4065e-015 -90 -90   XYZ
    dof rx rz
    limits (-90.0 90.0)
           (-45.0 45.0)
  end
  begin
     id 29
     name rfingers
     direction -1 -4.49178e-011 -2.63492e-026   
     length 1.08785   
     axis 1.6813e-014 -90 -90   XYZ
    dof rx
    limits (0.0 90.0)
  end
  begin
     id 30
     name rthumb
     direction -0.707107 -6.34713e-011 0.707107   
     length 1.56195   
     axis -90 -45 -2.85299e-015   XYZ
    dof rx rz
    limits (-45.0 45.0)
           (-45.0 45.0)
  end
:hierarchy
  begin
    root lhipjoint rhipjoint lowerback
    lhipjoint lfemur
    lfemur ltibia
    ltibia lfoot
    lfoot ltoes
    rhipjoint rfemur
    rfemur rtibia
    rtibia rfoot
    rfoot rtoes
    lowerback upperback
    upperback thorax
    thorax lowerneck lclavicle rclavicle
    lowerneck upperneck
    upperneck head
    lclavicle lhumerus
    lhumerus lradius
    lradius lwrist
    lwrist lhand lthumb
    lhand lfingers
    rclavicle rhumerus
    rhumerus rradius
    rradius rwrist
    rwrist rhand rthumb
    rhand rfingers
  end

#!OML:ASF X:\für Bonn\!DataBase\2005_08_10_Bjorn_Final\c3d\bjorn.ASF
:FULLY-SPECIFIED
:DEGREES
1
root 0.0986965 19.3101 3.69815 -171.394 0.0169512 177.046
lowerback -9.16183 1.37668 -0.967175
upperback 11.4221 1.08323 -0.117602
thorax 18.1946 -0.0202795 0.5413
lowerneck 8.14592 -3.72909 2.30858
upperneck 10.0413 -5.881 0.946042
head 1.75128 -3.20888 -0.0458381
rclavicle 1.98785e-016 1.11319e-014
rhumerus -1125.58 -71.5479 1050.24
rradius 8.52424
rwrist 29.5114
rhand -25.7578 1.20881
rfingers 7.12502
rthumb 0.779699 -28.7695
lclavicle 1.98785e-016 1.11319e-014
lhumerus -8.6084 71.5035 69.2074
lradius 7.17454
lwrist -69.8982
lhand -19.435 8.13389
lfingers 7.12502
lthumb 6.88526 38.0019
rfemur -21.6464 -12.6682 12.6309
rtibia 30.6314
rfoot -14.9887 10.989
rtoes -11.6721
lfemur -19.6502 4.74723 -20.454
ltibia 28.0517
lfoot -10.7969 -9.79019
ltoes -0.993766
2
root 0.0965361 19.3198 3.75268 -171.186 -0.025685 176.989
lowerback -8.62541 1.38393 -0.991101
upperback 11.5478 1.04375 -0.107344
thorax 17.9933 -0.0579572 0.545337
lowerneck 6.80649 -3.7237 2.20018
upperneck 10.0441 -5.8274 1.01326
head 1.97914 -3.14047 -0.041788
rclavicle -1.47101e-014 -1.98785e-015
rhumerus -1116.35 -71.8984 1040.1
rradius 7.99271
rwrist 30.763
rhand -25.6462 1.3519
rfingers 7.12502
rthumb 0.887478 -28.626
lclavicle -1.47101e-014 -1.98785e-015
lhumerus -1.3179 69.7129 77.5482
lradius 6.80726
lwrist -70.5129
lhand -19.6694 8.39965
lfingers 7.12502
lthumb 6.65901 38.2749
rfemur -22.0331 -12.9106 12.667
rtibia 30.5339
rfoot -14.6719 11.0802
rtoes -12.0809
lfemur -20.0135 4.84724 -20.5702
ltibia 27.9154
lfoot -10.4595 -9.91148
ltoes -0.853795
3
root 0.0945295 19.3325 3.8066 -170.959 -0.0627849 176.947
lowerback -8.12058 1.41376 -0.972031
upperback 11.6285 1.04183 -0.114095
thorax 17.7561 -0.0665701 0.516896
lowerneck 5.5686 -3.7343 2.09621
upperneck 10.0668 -5.80645 1.10688
head 2.20219 -3.09279 -0.0273651
rclavicle -7.95139e-015 -7.95139e-016
rhumerus -1107.13 -71.7399 1030.06
rradius 7.59639
rwrist 31.9778
rhand -25.8048 1.38438
rfingers 7.12502
rthumb 0.734288 -28.5941
lclavicle -7.95139e-015 -7.95139e-016
lhumerus 4.69433 67.4873 84.4117
lradius 6.47787
lwrist -70.9945
lhand -20.0657 8.82563
lfingers 7.12502
lthumb 6.27638 38.7126
rfemur -22.4361 -13.1472 12.7289
rtibia 30.4368
rfoot -14.3469 11.1646
rtoes -12.3173
lfemur -20.3969 4.96936 -20.6734
ltibia 27.7791
lfoot -10.1275 -10.0215
ltoes -0.789898
4
root 0.093506 19.341 3.8602 -170.766 -0.141569 176.878
lowerback -7.58621 1.40033 -1.02787
upperback 11.6788 0.992879 -0.0932098
thorax 17.4589 -0.106652 0.551997
lowerneck 4.52216 -3.72492 1.91339
upperneck 10.0302 -5.7598 1.18612
head 2.37843 -3.04052 0.0020563
rclavicle 1.53064e-014 1.59028e-015
rhumerus -1098.13 -70.9586 1020.48
rradius 7.22813
rwrist 33.2715
rhand -25.9838 1.62486
rfingers 7.12502
rthumb 0.561363 -28.3541
lclavicle 1.53064e-014 1.59028e-015
lhumerus 9.50726 65.0863 89.9622
lradius 6.19251
lwrist -71.2334
lhand -20.5293 9.15713
lfingers 7.12502
lthumb 5.82877 39.057
rfemur -22.7968 -13.3958 12.7586
rtibia 30.3549
rfoot -14.0532 11.2288
rtoes -12.7344
lfemur -20.7448 5.09068 -20.7989
ltibia 27.6428
lfoot -9.80931 -10.2036
ltoes -0.6771
5
root 0.0929607 19.3498 3.91283 -170.574 -0.211706 176.832
lowerback -7.0838 1.40645 -1.02543
upperback 11.6812 0.978349 -0.104176
thorax 17.1245 -0.115245 0.528275
lowerneck 3.63777 -3.7369 1.81954
upperneck 10.0271 -5.75044 1.25725
head 2.53753 -3.01064 0.0180442
rclavicle -2.18663e-015 6.36111e-015
rhumerus -1090.07 -69.7408 1011.98
rradius 6.82427
rwrist 34.6827
rhand -25.7089 1.99425
rfingers 7.12502
rthumb 0.82688 -27.9839
lclavicle -2.18663e-015 6.36111e-015
lhumerus 13.4526 62.402 94.4228
lradius 5.93698
lwrist -71.3583
lhand -20.5355 9.17568
lfingers 7.12502
lthumb 5.82284 39.0757
rfemur -23.158 -13.5488 12.8091
rtibia 30.2748
rfoot -13.8135 11.2165
rtoes -13.1696
lfemur -21.0891 5.21857 -20.8985
ltibia 27.5146
lfoot -9.48021 -10.3545
ltoes -0.60627
6
root 0.0921194 19.3582 3.96321 -170.382 -0.29047 176.761
lowerback -6.63502 1.41454 -1.04845
upperback 11.6585 0.979725 -0.121639
thorax 16.7949 -0.116247 0.516556
lowerneck 2.90479 -3.77067 1.76621
upperneck 9.97597 -5.76557 1.28006
head 2.65276 -2.99647 0.0166032
rclavicle 7.7526e-015 4.37326e-015
rhumerus -1083.01 -68.1586 1004.64
rradius 6.49296
rwrist 36.2211
rhand -25.1999 2.30304
rfingers 7.12502
rthumb 1.3185 -27.6726
lclavicle 7.7526e-015 4.37326e-015
lhumerus 16.7962 59.5213 98.1173
lradius 5.72492
lwrist -71.3579
lhand -20.4413 9.17903
lfingers 7.12502
lthumb 5.91379 39.0765
rfemur -23.5272 -13.7702 12.8331
rtibia 30.2093
rfoot -13.5084 11.2752
rtoes -13.2647
lfemur -21.4381 5.40648 -21.0367
ltibia 27.3958
lfoot -9.15063 -10.6045
ltoes -0.415202
7
root 0.0926952 19.3661 4.01205 -170.205 -0.385456 176.701
lowerback -6.19174 1.41076 -1.07567
upperback 11.6149 0.969536 -0.13807
thorax 16.4443 -0.121179 0.506842
lowerneck 2.19906 -3.81013 1.702
upperneck 10.0129 -5.79858 1.27124
head 2.79352 -2.99565 0.00574871
rclavicle 3.57812e-015 2.38542e-015
rhumerus -1076.82 -66.2429 998.31
rradius 6.2202
rwrist 37.7094
rhand -24.6879 2.19191
rfingers 7.12502
rthumb 1.81296 -27.7801
lclavicle 3.57812e-015 2.38542e-015
lhumerus 19.8802 56.4737 101.335
lradius 5.42066
lwrist -71.1623
lhand -20.9622 9.34932
lfingers 7.12502
lthumb 5.4108 39.2602
rfemur -23.8716 -13.9613 12.8774
rtibia 30.1467
rfoot -13.2586 11.2724
rtoes -13.7496
lfemur -21.7595 5.54903 -21.1481
ltibia 27.2731
lfoot -8.81351 -10.8214
ltoes -0.25671
8
root 0.0943177 19.3736 4.05941 -170.068 -0.449401 176.65
lowerback -5.77159 1.42456 -1.08905
upperback 11.5799 0.982367 -0.170221
thorax 16.122 -0.113231 0.476452
lowerneck 1.48452 -3.83369 1.65538
upperneck 10.1434 -5.8223 1.26716
head 2.96908 -2.99169 -0.00847285
rclavicle -8.15017e-015 -1.19271e-014
rhumerus -1071.38 -64.0817 992.913
rradius 6.03516
rwrist 38.6091
rhand -23.8708 2.06825
rfingers 7.12502
rthumb 2.60209 -27.8956
lclavicle -8.15017e-015 -1.19271e-014
lhumerus 22.8821 53.2044 104.165
lradius 4.9135
lwrist -71.162
lhand -21.1585 9.55513
lfingers 7.12502
lthumb 5.22132 39.4708
rfemur -24.17 -14.1104 12.9183
rtibia 30.0877
rfoot -13.0263 11.2748
rtoes -14.0554
lfemur -22.0304 5.80414 -21.2608
ltibia 27.1456
lfoot -8.47305 -11.097
ltoes -0.0480206
9
root 0.0953645 19.3809 4.10377 -169.91 -0.491154 176.567
lowerback -5.45321 1.42909 -1.15766
upperback 11.5379 0.995395 -0.199751
thorax 15.8584 -0.110859 0.481351
lowerneck 0.826096 -3.85491 1.60485
upperneck 10.2917 -5.84242 1.21968
head 3.14098 -2.98954 -0.0349254
rclavicle -1.21259e-014 4.37326e-015
rhumerus -1066.64 -61.6676 988.426
rradius 5.82184
rwrist 39.1606
rhand -23.4511 2.3375
rfingers 7.12502
rthumb 3.00749 -27.621
lclavicle -1.21259e-014 4.37326e-015
lhumerus 25.6568 49.8427 106.548
lradius 4.33322
lwrist -70.7852
lhand -21.11 9.61501
lfingers 7.12502
lthumb 5.26812 39.5295
rfemur -24.4895 -14.2279 12.9141
rtibia 30.0312
rfoot -12.759 11.2978
rtoes -14.1072
lfemur -22.3214 6.05682 -21.4189
ltibia 27.0193
lfoot -8.14536 -11.3801
ltoes 0.183503
10
root 0.095891 19.3877 4.14728 -169.763 -0.546408 176.477
lowerback -5.16418 1.41293 -1.24843
upperback 11.4746 0.985389 -0.20789
thorax 15.5881 -0.121257 0.519326
lowerneck 0.341472 -3.88027 1.48787
upperneck 10.3901 -5.86191 1.14315
head 3.26589 -2.99433 -0.05441
rclavicle -3.97569e-015 -4.77083e-015
rhumerus -1062.61 -59.0423 984.88
rradius 5.50119
rwrist 39.7228
rhand -23.4829 2.7267
rfingers 7.12502
rthumb 2.97676 -27.2323
lclavicle -3.97569e-015 -4.77083e-015
lhumerus 28.0676 46.4913 108.439
lradius 3.81366
lwrist -69.992
lhand -20.7485 9.55486
lfingers 7.12502
lthumb 5.61714 39.4604
rfemur -24.7876 -14.324 12.8986
rtibia 29.9793
rfoot -12.5353 11.2533
rtoes -14.4416
lfemur -22.5886 6.25775 -21.5801
ltibia 26.8903
lfoot -7.81914 -11.6225
ltoes 0.464006
11
root 0.0972252 19.3932 4.18709 -169.63 -0.61727 176.407
lowerback -4.96967 1.40439 -1.31261
upperback 11.4261 0.985511 -0.229624
thorax 15.3998 -0.123203 0.529955
lowerneck -0.0529499 -3.9047 1.4267
upperneck 10.4408 -5.88079 1.09318
head 3.35745 -2.9978 -0.0717577
rclavicle 8.15017e-015 -1.94809e-014
rhumerus -1058.98 -56.3215 981.939
rradius 5.02585
rwrist 40.3941
rhand -23.5911 3.21773
rfingers 7.12502
rthumb 2.8723 -26.7427
lclavicle 8.15017e-015 -1.94809e-014
lhumerus 30.2246 43.0814 109.834
lradius 3.33836
lwrist -69.1568
lhand -20.2874 9.49541
lfingers 7.12502
lthumb 6.06235 39.3887
rfemur -25.0661 -14.5063 12.9169
rtibia 29.9331
rfoot -12.317 11.2827
rtoes -14.7945
lfemur -22.8383 6.5579 -21.7298
ltibia 26.7652
lfoot -7.47353 -11.9597
ltoes 0.644069
12
root 0.0992313 19.3994 4.22335 -169.548 -0.690988 176.32
lowerback -4.78963 1.38737 -1.41721
upperback 11.3783 0.97829 -0.24589
thorax 15.2216 -0.133827 0.568108
lowerneck -0.338824 -3.93404 1.35375
upperneck 10.4901 -5.90724 1.0275
head 3.42836 -3.00902 -0.0896904
rclavicle -6.36111e-015 3.97569e-015
rhumerus -1055.73 -53.4677 979.62
rradius 4.40446
rwrist 40.8525
rhand -23.7758 3.63942
rfingers 7.12502
rthumb 2.69385 -26.3233
lclavicle -6.36111e-015 3.97569e-015
lhumerus 32.002 39.7934 110.724
lradius 3.09618
lwrist -68.3653
lhand -20.5023 9.26324
lfingers 7.12502
lthumb 5.85484 39.1623
rfemur -25.2606 -14.6578 12.8944
rtibia 29.8851
rfoot -12.1404 11.29
rtoes -15.1453
lfemur -23.0154 6.80924 -21.8835
ltibia 26.6573
lfoot -7.15319 -12.2731
ltoes 1.03789
